<?xml version="1.0" encoding="utf-8"?>
<!-- Generator: Adobe Illustrator 18.1.0, SVG Export Plug-In . SVG Version: 6.00 Build 0)  -->
<svg version="1.1" id="Layer_1" xmlns="http://www.w3.org/2000/svg" xmlns:xlink="http://www.w3.org/1999/xlink" x="0px" y="0px"
	 viewBox="0 0 500 500" enable-background="new 0 0 500 500" xml:space="preserve">
<path fill="#010101" d="M452.8,315.6l47.1-12.8V197.1l-47.1-12.8l0,0c-3.5-10.9-7.9-21.3-13.1-31.4l0,0l24.2-42.3L389.3,36L347,60.2
	l0,0l0,0c-10.1-5.1-20.6-9.6-31.4-13.1l0,0L302.8,0H197.1l-12.8,47.1l0,0c-10.9,3.5-21.3,7.9-31.4,13.1l0,0l0,0L110.6,36L36,110.6
	l24.2,42.3l0,0c-5.1,10.1-9.6,20.6-13.1,31.4l0,0L0,197.1v105.7l47.1,12.8l0,0c3.5,10.9,7.9,21.3,13.1,31.4l0,0l0,0L36,389.3
	l74.6,74.6l42.3-24.2l0,0c10.1,5.1,20.6,9.6,31.4,13.1l0,0l12.8,47.1h105.7l12.8-47.1l0,0c10.9-3.5,21.3-7.9,31.4-13.1l0,0
	l42.3,24.2l74.6-74.6L439.7,347l0,0l0,0C444.8,336.9,449.3,326.5,452.8,315.6L452.8,315.6z M250,376.1
	c-69.7,0-126.1-56.4-126.1-126.1S180.4,123.9,250,123.9S376.1,180.4,376.1,250S319.7,376.1,250,376.1z"/>
</svg>
